<svg xmlns="http://www.w3.org/2000/svg" version="1.1" xmlns:xlink="http://www.w3.org/1999/xlink" xmlns:svgjs="http://svgjs.dev/svgjs" width="1440" height="900" preserveAspectRatio="none" viewBox="0 0 1440 900"><g mask="url(&quot;#SvgjsMask1004&quot;)" fill="none"><rect width="1440" height="900" x="0" y="0" fill="rgba(243, 144, 89, 1)"></rect><path d="M780 0C788.09 78.2 743.68 115.03 698.28 225C691.18 242.21 682.8 237.42 675 254.35C630.98 349.92 594.64 362.57 594.64 450C594.64 492.54 628.58 514.29 675 514.29C775.91 514.29 783.22 484.23 889.29 450C895.72 447.92 897.93 448.06 900 441.67C934.4 335.56 948.16 335.5 962.23 225C976.28 114.67 909.74 64.3 956.25 0C991.12 -48.2 1040.63 0 1125 0C1237.5 0 1237.5 0 1350 0C1462.5 0 1518.75 -56.25 1575 0C1631.25 56.25 1575 112.5 1575 225C1575 337.5 1575 337.5 1575 450C1575 506.25 1579.47 506.61 1575 562.5C1570.47 619.11 1557 621.57 1557 675C1557 687.19 1573.99 681.16 1575 693.75C1582.99 793.66 1628.8 850.68 1575 900C1516.3 953.8 1462.5 900 1350 900C1237.5 900 1237.5 900 1125 900C1037.05 900 1029.54 917.88 949.09 900C917.04 892.88 932.13 851.01 900 850C795.09 846.69 786.75 868.36 675 891.35C665.25 893.36 666.9 899.62 657 900C554.4 903.94 553.5 900 450 900C337.5 900 337.5 900 225 900C112.5 900 56.25 956.25 0 900C-56.25 843.75 0 787.5 0 675C0 562.5 0 562.5 0 450C0 337.5 0 337.5 0 225C0 112.5 -56.25 56.25 0 0C56.25 -56.25 112.5 0 225 0C337.5 0 337.5 0 450 0C562.5 0 562.5 0 675 0C727.5 0 776.45 -34.3 780 0" stroke="rgba(2, 80, 105, 1)" stroke-width="2"></path><path d="M79.41 225C79.41 186.64 16.73 197.4 0 150C-22.97 84.9 -45 30 0 0C67.5 -45 112.5 0 225 0C337.5 0 337.5 0 450 0C536.17 0 603.24 -47.11 622.34 0C648.85 65.39 573.89 110.27 541.22 225C509.82 335.27 460.88 357.93 494.2 450C527.77 542.75 572.18 561.27 675 594.64C775.08 627.12 793.28 610.49 900 581.71C1018.28 549.81 1024.68 451.71 1125 473.28C1241.65 498.36 1298.04 557.79 1333.93 675C1363.37 771.15 1323.12 827.35 1255.65 900C1218.65 939.85 1190.32 900 1125 900C1088.18 900 1079.96 919.6 1051.36 900C967.46 842.51 991.54 774.25 900 745.83C803.36 715.83 782.82 749.31 675 783.17C557.82 819.97 567.94 859.33 450 887.14C342.94 912.39 337.48 887.22 225 889.29C112.48 891.36 56.84 949.54 0 895.41C-55.66 842.4 0 785.2 0 675C0 562.5 0 562.5 0 450C0 378.41 -22.1 369.45 0 306.82C17.6 256.95 79.41 265.05 79.41 225" stroke="rgba(2, 80, 105, 1)" stroke-width="2"></path><path d="M1022.07 225C1002.21 118.08 1006.23 82.86 1044.14 0C1057.7 -29.64 1084.57 0 1125 0C1237.5 0 1237.5 0 1350 0C1422.8 0 1434.46 -25.29 1495.59 0C1546.96 21.26 1555.89 38.96 1575 93.1C1595.6 151.46 1575 159.05 1575 225C1575 292.11 1616.89 329.82 1575 359.21C1504.39 408.74 1461.32 364.01 1350 382.84C1236.32 402.07 1206.43 474.53 1125 435.33C1042.47 395.61 1042.64 335.74 1022.07 225" stroke="rgba(2, 80, 105, 1)" stroke-width="2"></path><path d="M225 192.86C104.96 160.57 11.84 55.37 11.84 0C11.84 -41.06 118.42 0 225 0C337.5 0 337.5 0 450 0C476.33 0 502.66 -17.07 502.66 0C502.66 41.86 498.93 83.87 450 117.86C360.1 180.3 324.04 219.5 225 192.86" stroke="rgba(2, 80, 105, 1)" stroke-width="2"></path><path d="M1081.91 225C1081.91 126.41 1096.95 120.32 1125 22.5C1129.21 7.82 1131.53 1.49 1146.43 0C1244.03 -9.76 1248.22 0 1350 0C1381.43 0 1390.25 -19.11 1412.87 0C1502.75 75.94 1503.87 91.38 1575 190.09C1584.94 203.88 1575 207.55 1575 225C1575 242.76 1590.15 255.55 1575 260.53C1477.65 292.49 1463.19 285.67 1350 298.88C1238.19 311.93 1218.43 338.79 1125 313.04C1084.38 301.85 1081.91 271.68 1081.91 225" stroke="rgba(2, 80, 105, 1)" stroke-width="2"></path><path d="M0 483.33C61.61 446.37 112.3 512.49 225 540C337.3 567.41 339.46 560.02 450 593.18C564.46 627.52 675 641.08 675 675C675 707.7 563.47 706.17 450 726.43C338.47 746.35 337.61 741.8 225 755.36C112.61 768.89 76.72 808.01 0 780.61C-35.78 767.83 0 727.81 0 675C0 579.16 -50.89 513.87 0 483.33" stroke="rgba(2, 80, 105, 1)" stroke-width="2"></path><path d="M1100 675C1100 667.64 1113.42 667.24 1125 667.24C1129.94 667.24 1133.04 670.04 1133.04 675C1133.04 687.99 1132.23 703.13 1125 703.13C1115.71 703.13 1100 685.58 1100 675" stroke="rgba(2, 80, 105, 1)" stroke-width="2"></path></g><defs><mask id="SvgjsMask1004"><rect width="1440" height="900" fill="#ffffff"></rect></mask></defs></svg>