<svg xmlns="http://www.w3.org/2000/svg" version="1.1" xmlns:xlink="http://www.w3.org/1999/xlink" xmlns:svgjs="http://svgjs.dev/svgjs" width="1440" height="560" preserveAspectRatio="none" viewBox="0 0 1440 560"><g mask="url(&quot;#SvgjsMask1006&quot;)" fill="none"><rect width="1440" height="560" x="0" y="0" fill="rgba(243, 144, 89, 1)"></rect><path d="M700 127.93C685.58 127.93 674.32 126.4 672 140C661.32 202.44 664.49 211.81 674 280C678.49 312.15 673.51 328.64 700 340.67C756.51 366.33 774.7 334.23 840 355.38C897.2 373.9 893.33 386.46 945 420C963.33 431.9 959.6 439.33 980 446.25C1047.1 469.02 1063.21 488.47 1120 479.39C1145.31 475.34 1144.2 448.63 1144.2 420C1144.2 399.72 1136.04 397.39 1120 381.57C1065.08 327.39 1056.15 334.81 1002.27 280C986.15 263.61 999.3 250.1 980 239.17C918.16 204.16 908.59 216.92 840 188.13C790.47 167.34 792.99 161.17 743.75 140C722.99 131.07 721.46 127.93 700 127.93" stroke="rgba(2, 80, 105, 1)" stroke-width="2"></path><path d="M1120 16.47C1090.89 16.47 1054.38 87.15 1054.38 140C1054.38 169.11 1088.71 180.38 1120 180.38C1145.39 180.38 1167.73 166.28 1167.73 140C1167.73 84.33 1147.56 16.47 1120 16.47" stroke="rgba(2, 80, 105, 1)" stroke-width="2"></path><path d="M1400 103.16C1389.33 103.16 1382.8 119.55 1379.41 140C1368.15 207.97 1362.92 214.03 1370.7 280C1373.21 301.29 1381.57 314.52 1400 314.52C1433.28 314.52 1470.12 310.89 1474.12 280C1481.41 223.63 1451.32 208.56 1422.58 140C1414.26 120.14 1410.92 103.16 1400 103.16" stroke="rgba(2, 80, 105, 1)" stroke-width="2"></path><path d="M280 256.31C233.84 262.68 231.68 261.82 189.41 280C161.68 291.93 159.68 293.44 140 316.52C99.98 363.44 70 375.46 70 420C70 449.65 102.26 464.91 140 464.91C203.37 464.91 208.61 445.71 272.22 420C278.61 417.42 274.19 412.17 280 408.33C348.08 363.38 357.53 372.24 420 322.42C437.98 308.08 440.9 300.56 440.9 280C440.9 263.44 437.18 250.71 420 248.18C356.73 238.86 349.13 246.77 280 256.31" stroke="rgba(2, 80, 105, 1)" stroke-width="2"></path><path d="M371.8 0C409.83 26.62 383.81 61.34 420 98C452.91 131.34 464.49 120.2 510 140C534.49 150.66 544 139.27 560 158.92C601 209.27 624 222.2 624 280C624 324.22 592.44 362.96 560 362.96C527.01 362.96 524.24 323.18 493.13 280C454.24 226.02 471.21 187.27 420 168.64C364.64 148.5 350.73 189.6 280 202.46C210.73 215.05 210.25 214.73 140 219.55C70.25 224.34 44.21 246.79 0 221.67C-25.79 207.02 0 180.83 0 140C0 70 -35 35 0 0C35 -35 70 0 140 0C210 0 210 0 280 0C325.9 0 339.83 -22.38 371.8 0" stroke="rgba(2, 80, 105, 1)" stroke-width="2"></path><path d="M700 67.59C652.35 55.82 618.33 19.09 618.33 0C618.33 -14.71 659.16 0 700 0C770 0 770 0 840 0C910 0 910 0 980 0C1007.63 0 1035.26 -15.57 1035.26 0C1035.26 30.08 1021.44 79.67 980 91.3C923.81 107.06 911.01 60.79 840 54.78C771.01 48.94 763.19 83.21 700 67.59" stroke="rgba(2, 80, 105, 1)" stroke-width="2"></path><path d="M1247.27 140C1259.51 127.71 1252.85 107.06 1260 107.06C1267.45 107.06 1269.57 122.94 1276.47 140C1304.57 209.41 1294.13 215.39 1330 280C1355.89 326.63 1356.48 332.82 1400 362.47C1459.22 402.82 1535.48 381.59 1535.48 420C1535.48 465.62 1476.28 504.27 1400 530.53C1338.54 551.69 1317.53 544.75 1260 514.84C1211.23 489.48 1221.4 469.02 1187.41 420C1151.4 368.07 1157.75 362.99 1120 312.94C1104.95 292.99 1081.82 296.38 1081.82 280C1081.82 263.75 1100.91 263.84 1120 247.69C1183.63 193.84 1189.51 198.02 1247.27 140" stroke="rgba(2, 80, 105, 1)" stroke-width="2"></path><path d="M1535.48 140C1535.48 137.63 1538.57 136.74 1540 136.74C1540.83 136.74 1540 138.37 1540 140C1540 147 1541.1 154 1540 154C1538.84 154 1535.48 146.26 1535.48 140" stroke="rgba(2, 80, 105, 1)" stroke-width="2"></path><path d="M110.94 560C110.94 551.49 124 530.94 140 530.94C160.53 530.94 184 552.08 184 560C184 566.61 162 560 140 560C125.47 560 110.94 566.02 110.94 560" stroke="rgba(2, 80, 105, 1)" stroke-width="2"></path><path d="M514.29 560C514.29 541.72 538.32 501.05 560 501.05C580.48 501.05 598.62 540.96 598.62 560C598.62 570.43 579.31 560 560 560C537.14 560 514.29 571.2 514.29 560" stroke="rgba(2, 80, 105, 1)" stroke-width="2"></path><path d="M767.59 560C767.59 519.96 793.66 439.8 840 438.85C899.86 437.62 908.08 501.17 980 555.63C988.08 561.75 1000 558.89 1000 560C1000 561.08 990 560 980 560C910 560 910 560 840 560C803.8 560 767.59 580.54 767.59 560" stroke="rgba(2, 80, 105, 1)" stroke-width="2"></path><path d="M0 96.25C53.92 96.25 140 122.95 140 140C140 156.49 60.12 163.33 0 163.33C-9.88 163.33 0 151.67 0 140C0 118.13 -16.08 96.25 0 96.25" stroke="rgba(2, 80, 105, 1)" stroke-width="2"></path><path d="M140 140C115.3 70 90.59 52.52 90.59 0C90.59 -17.48 115.3 0 140 0C210 0 210 0 280 0C297.22 0 311.67 -13.81 314.43 0C325.67 56.19 322.24 78.54 308 140C305.02 152.85 294.51 148.62 280 148.62C210.51 148.62 210 144.31 140 140C140 140 140 140 140 140" stroke="rgba(2, 80, 105, 1)" stroke-width="2"></path><path d="M700 7.24C694.94 7.24 691.25 2.04 691.25 0C691.25 -1.58 695.63 0 700 0C711.06 0 722.11 -1.76 722.11 0C722.11 1.86 710.37 7.24 700 7.24" stroke="rgba(2, 80, 105, 1)" stroke-width="2"></path><path d="M545.37 280C545.37 267.39 552.81 253.51 560 253.51C567.12 253.51 574 267.35 574 280C574 289.67 567.1 298.15 560 298.15C552.78 298.15 545.37 289.71 545.37 280" stroke="rgba(2, 80, 105, 1)" stroke-width="2"></path><path d="M1178.71 280C1184.74 238.03 1227.15 215.38 1260 215.38C1282.44 215.38 1268.78 251.41 1289.3 280C1338.78 348.93 1341.72 349.19 1400 410.41C1408.36 419.19 1422.58 413.6 1422.58 420C1422.58 427.6 1413.89 435.14 1400 438.42C1332.6 454.34 1323.11 465.25 1260 458.39C1238.42 456.04 1240.56 441.82 1230.62 420C1199.92 352.62 1170.05 340.34 1178.71 280" stroke="rgba(2, 80, 105, 1)" stroke-width="2"></path><path d="M807.82 560C807.82 542.2 819.43 506.15 840 506.15C867.34 506.15 903.64 544.73 903.64 560C903.64 571.66 871.82 560 840 560C823.91 560 807.82 569.13 807.82 560" stroke="rgba(2, 80, 105, 1)" stroke-width="2"></path></g><defs><mask id="SvgjsMask1006"><rect width="1440" height="560" fill="#ffffff"></rect></mask></defs></svg>