<svg xmlns="http://www.w3.org/2000/svg" version="1.1" xmlns:xlink="http://www.w3.org/1999/xlink" xmlns:svgjs="http://svgjs.dev/svgjs" width="1440" height="560" preserveAspectRatio="none" viewBox="0 0 1440 560"><g mask="url(&quot;#SvgjsMask1370&quot;)" fill="none"><rect width="1440" height="560" x="0" y="0" fill="url(&quot;#SvgjsLinearGradient1371&quot;)"></rect><path d="M1440 0L1416.95 0L1440 18.1z" fill="rgba(255, 255, 255, .1)"></path><path d="M1416.95 0L1440 18.1L1440 235.5L1053.78 0z" fill="rgba(255, 255, 255, .075)"></path><path d="M1053.78 0L1440 235.5L1440 277.47L744.67 0z" fill="rgba(255, 255, 255, .05)"></path><path d="M744.67 0L1440 277.47L1440 401.47L282.53999999999996 0z" fill="rgba(255, 255, 255, .025)"></path><path d="M0 560L486.48 560L0 502.21z" fill="rgba(0, 0, 0, .1)"></path><path d="M0 502.21L486.48 560L789.6800000000001 560L0 469.94z" fill="rgba(0, 0, 0, .075)"></path><path d="M0 469.94L789.6800000000001 560L884.6200000000001 560L0 320.57z" fill="rgba(0, 0, 0, .05)"></path><path d="M0 320.57L884.6200000000001 560L1190.64 560L0 257.99z" fill="rgba(0, 0, 0, .025)"></path></g><defs><mask id="SvgjsMask1370"><rect width="1440" height="560" fill="#ffffff"></rect></mask><linearGradient x1="15.28%" y1="-39.29%" x2="84.72%" y2="139.29%" gradientUnits="userSpaceOnUse" id="SvgjsLinearGradient1371"><stop stop-color="rgba(214, 65, 65, 1)" offset="0.31"></stop><stop stop-color="rgba(243, 110, 36, 1)" offset="0.72"></stop></linearGradient></defs></svg>