<svg xmlns="http://www.w3.org/2000/svg" version="1.1" xmlns:xlink="http://www.w3.org/1999/xlink" xmlns:svgjs="http://svgjs.dev/svgjs" width="1440" height="800" preserveAspectRatio="none" viewBox="0 0 1440 800"><g mask="url(&quot;#SvgjsMask1018&quot;)" fill="none"><rect width="1440" height="800" x="0" y="0" fill="url(&quot;#SvgjsLinearGradient1019&quot;)"></rect><path d="M1440 0L1132.37 0L1440 257.37z" fill="rgba(255, 255, 255, .1)"></path><path d="M1132.37 0L1440 257.37L1440 296.01L543.8599999999999 0z" fill="rgba(255, 255, 255, .075)"></path><path d="M543.86 0L1440 296.01L1440 390.53L453.31 0z" fill="rgba(255, 255, 255, .05)"></path><path d="M453.31000000000006 0L1440 390.53L1440 603.3499999999999L359.2800000000001 0z" fill="rgba(255, 255, 255, .025)"></path><path d="M0 800L670.55 800L0 725.81z" fill="rgba(0, 0, 0, .1)"></path><path d="M0 725.81L670.55 800L1058.56 800L0 472.28999999999996z" fill="rgba(0, 0, 0, .075)"></path><path d="M0 472.28999999999996L1058.56 800L1279.26 800L0 206.70999999999998z" fill="rgba(0, 0, 0, .05)"></path><path d="M0 206.71000000000004L1279.26 800L1358.59 800L0 196.68000000000004z" fill="rgba(0, 0, 0, .025)"></path></g><defs><mask id="SvgjsMask1018"><rect width="1440" height="800" fill="#ffffff"></rect></mask><linearGradient x1="11.11%" y1="-20%" x2="88.89%" y2="120%" gradientUnits="userSpaceOnUse" id="SvgjsLinearGradient1019"><stop stop-color="rgba(214, 65, 65, 1)" offset="0.31"></stop><stop stop-color="rgba(243, 110, 36, 1)" offset="0.72"></stop></linearGradient></defs></svg>