<svg xmlns="http://www.w3.org/2000/svg" version="1.1" xmlns:xlink="http://www.w3.org/1999/xlink" xmlns:svgjs="http://svgjs.dev/svgjs" width="1440" height="900" preserveAspectRatio="none" viewBox="0 0 1440 900"><g mask="url(&quot;#SvgjsMask1014&quot;)" fill="none"><rect width="1440" height="900" x="0" y="0" fill="url(&quot;#SvgjsLinearGradient1015&quot;)"></rect><path d="M1440 0L1343.9 0L1440 384.85z" fill="rgba(255, 255, 255, .1)"></path><path d="M1343.9 0L1440 384.85L1440 460.76L937.9000000000001 0z" fill="rgba(255, 255, 255, .075)"></path><path d="M937.9 0L1440 460.76L1440 693.96L459.77 0z" fill="rgba(255, 255, 255, .05)"></path><path d="M459.77 0L1440 693.96L1440 749.0300000000001L382.15999999999997 0z" fill="rgba(255, 255, 255, .025)"></path><path d="M0 900L172.4 900L0 807.71z" fill="rgba(0, 0, 0, .1)"></path><path d="M0 807.71L172.4 900L414.38 900L0 441.13000000000005z" fill="rgba(0, 0, 0, .075)"></path><path d="M0 441.13L414.38 900L859.21 900L0 182.95999999999998z" fill="rgba(0, 0, 0, .05)"></path><path d="M0 182.96000000000004L859.21 900L987.61 900L0 148.73000000000005z" fill="rgba(0, 0, 0, .025)"></path></g><defs><mask id="SvgjsMask1014"><rect width="1440" height="900" fill="#ffffff"></rect></mask><linearGradient x1="9.37%" y1="-15%" x2="90.63%" y2="115%" gradientUnits="userSpaceOnUse" id="SvgjsLinearGradient1015"><stop stop-color="rgba(214, 65, 65, 1)" offset="0.31"></stop><stop stop-color="rgba(243, 110, 36, 1)" offset="0.72"></stop></linearGradient></defs></svg>