<svg xmlns="http://www.w3.org/2000/svg" version="1.1" xmlns:xlink="http://www.w3.org/1999/xlink" xmlns:svgjs="http://svgjs.dev/svgjs" width="1440" height="560" preserveAspectRatio="none" viewBox="0 0 1440 560"><g mask="url(&quot;#SvgjsMask1002&quot;)" fill="none"><rect width="1440" height="560" x="0" y="0" fill="rgba(76, 29, 0, 1)"></rect><path d="M0,655.159C121.535,642.52,164.293,481.618,265.884,413.724C364.684,347.695,529.917,372.59,582.365,265.957C634.513,159.934,514.206,45.18,505.096,-72.622C495.017,-202.948,607.96,-353.988,526.515,-456.228C446.026,-557.268,279.154,-495.828,151.615,-516.354C43.298,-533.787,-58.392,-585.157,-166.721,-567.799C-283.548,-549.08,-396.171,-499.514,-479.248,-415.27C-565.225,-328.085,-643.518,-213.744,-636.419,-91.503C-629.482,27.953,-504.094,99.376,-443.372,202.481C-390.832,291.693,-376.414,399.02,-303.969,472.986C-219.605,559.121,-119.921,667.63,0,655.159" fill="#3d1700"></path><path d="M1440 1172.629C1560.717 1176.1219999999998 1689.558 1171.403 1787.658 1100.966 1884.154 1031.681 1921.944 910.178 1961.5230000000001 798.172 1998.1480000000001 694.527 2018.685 587.755 2007.659 478.383 1996.277 365.474 1974.071 247.32999999999998 1897.546 163.534 1821.7350000000001 80.52100000000002 1703.492 61.589 1596.244 27.879999999999995 1486.873-6.495999999999981 1377.636-57.761999999999944 1265.231-35.206999999999994 1148.58-11.799999999999955 1038.632 55.682000000000016 970.7470000000001 153.39 905.488 247.31900000000002 917.811 369.429 905.126 483.097 892.876 592.864 862.72 702.893 897.732 807.645 934.751 918.4010000000001 1008.158 1016.006 1105.037 1081.212 1203.037 1147.173 1321.919 1169.212 1440 1172.629" fill="#5b2300"></path></g><defs><mask id="SvgjsMask1002"><rect width="1440" height="560" fill="#ffffff"></rect></mask></defs></svg>